<mxfile host="app.diagrams.net" modified="2023-12-28T09:42:12.167Z" agent="Mozilla/5.0 (X11; Ubuntu; Linux x86_64; rv:109.0) Gecko/20100101 Firefox/119.0" etag="D8DXUC2ftQm_5-y7sB5U" version="22.1.15" type="github">
  <diagram name="Page-1" id="8_qWgsKQ5Wl90cChguR5">
    <mxGraphModel dx="1382" dy="797" grid="0" gridSize="1" guides="1" tooltips="1" connect="1" arrows="1" fold="1" page="1" pageScale="1" pageWidth="1100" pageHeight="1700" background="#000000" math="0" shadow="0">
      <root>
        <mxCell id="0" />
        <mxCell id="1" parent="0" />
        <mxCell id="3OSSQbV52YD_su38mAtl-4" value="Client side" style="swimlane;startSize=20;strokeColor=#c061cb;" parent="1" vertex="1">
          <mxGeometry x="1087" y="472" width="114" height="490.5" as="geometry" />
        </mxCell>
        <mxCell id="3OSSQbV52YD_su38mAtl-6" style="edgeStyle=orthogonalEdgeStyle;rounded=0;orthogonalLoop=1;jettySize=auto;html=1;exitX=0.75;exitY=0;exitDx=0;exitDy=0;" parent="1" source="3OSSQbV52YD_su38mAtl-3" edge="1">
          <mxGeometry relative="1" as="geometry">
            <mxPoint x="615" y="447" as="targetPoint" />
          </mxGeometry>
        </mxCell>
        <mxCell id="3OSSQbV52YD_su38mAtl-3" value="Cloud side" style="swimlane;startSize=20;fontFamily=Verdana;strokeColor=#dc8add;" parent="1" vertex="1">
          <mxGeometry x="766" y="478" width="251" height="509.75" as="geometry">
            <mxRectangle x="766" y="478" width="106" height="26" as="alternateBounds" />
          </mxGeometry>
        </mxCell>
        <mxCell id="3OSSQbV52YD_su38mAtl-2" value="Edge side" style="swimlane;startSize=20;fontFamily=Verdana;strokeColor=#c061cb;" parent="1" vertex="1">
          <mxGeometry x="508" y="474" width="225" height="508" as="geometry" />
        </mxCell>
        <mxCell id="RjjPB-zqwfENZfD3fN4v-26" style="edgeStyle=orthogonalEdgeStyle;rounded=0;orthogonalLoop=1;jettySize=auto;html=1;exitX=0;exitY=0.75;exitDx=0;exitDy=0;" edge="1" parent="3OSSQbV52YD_su38mAtl-2" source="RjjPB-zqwfENZfD3fN4v-6">
          <mxGeometry relative="1" as="geometry">
            <mxPoint x="36.99965517241395" y="337.65517241379325" as="targetPoint" />
          </mxGeometry>
        </mxCell>
        <mxCell id="RjjPB-zqwfENZfD3fN4v-6" value="" style="strokeColor=#006EAF;shadow=0;strokeWidth=1;rounded=1;absoluteArcSize=1;arcSize=2;fillColor=#1ba1e2;fontColor=#ffffff;" vertex="1" parent="3OSSQbV52YD_su38mAtl-2">
          <mxGeometry x="50.31" y="314.5" width="97" height="56" as="geometry" />
        </mxCell>
        <mxCell id="RjjPB-zqwfENZfD3fN4v-7" value="Gateway" style="sketch=0;dashed=0;connectable=0;html=1;fillColor=#757575;strokeColor=none;shape=mxgraph.gcp2.gateway;part=1;labelPosition=right;verticalLabelPosition=middle;align=left;verticalAlign=middle;spacingLeft=5;fontSize=12;" vertex="1" parent="RjjPB-zqwfENZfD3fN4v-6">
          <mxGeometry y="0.5" width="32" height="32" relative="1" as="geometry">
            <mxPoint x="5" y="-16" as="offset" />
          </mxGeometry>
        </mxCell>
        <mxCell id="RjjPB-zqwfENZfD3fN4v-31" value="&lt;p&gt;&lt;font face=&quot;Verdana&quot; color=&quot;#ffffff&quot;&gt;&amp;nbsp;&amp;nbsp;&amp;nbsp;&amp;nbsp;&amp;nbsp;&amp;nbsp; Thingsboard Edge&lt;/font&gt;&lt;/p&gt;" style="rounded=1;whiteSpace=wrap;html=1;fillColor=none;strokeWidth=2;strokeColor=#FFFFFF;" vertex="1" parent="3OSSQbV52YD_su38mAtl-2">
          <mxGeometry x="27" y="233.75" width="153.5" height="55" as="geometry" />
        </mxCell>
        <mxCell id="RjjPB-zqwfENZfD3fN4v-34" style="edgeStyle=orthogonalEdgeStyle;rounded=0;orthogonalLoop=1;jettySize=auto;html=1;exitX=0;exitY=0.5;exitDx=0;exitDy=0;entryX=0.011;entryY=0.586;entryDx=0;entryDy=0;entryPerimeter=0;" edge="1" parent="3OSSQbV52YD_su38mAtl-2" source="RjjPB-zqwfENZfD3fN4v-31" target="RjjPB-zqwfENZfD3fN4v-31">
          <mxGeometry relative="1" as="geometry" />
        </mxCell>
        <mxCell id="RjjPB-zqwfENZfD3fN4v-35" value="" style="endArrow=classic;startArrow=classic;html=1;rounded=0;strokeColor=#FFFFFF;entryX=0.5;entryY=1;entryDx=0;entryDy=0;exitX=0.551;exitY=0.05;exitDx=0;exitDy=0;exitPerimeter=0;" edge="1" parent="3OSSQbV52YD_su38mAtl-2" source="RjjPB-zqwfENZfD3fN4v-6" target="RjjPB-zqwfENZfD3fN4v-31">
          <mxGeometry width="50" height="50" relative="1" as="geometry">
            <mxPoint x="56" y="306" as="sourcePoint" />
            <mxPoint x="122" y="306" as="targetPoint" />
          </mxGeometry>
        </mxCell>
        <object placeholders="1" label="&lt;font style=&quot;font-size: 16px&quot;&gt;&lt;b&gt;&lt;div style=&quot;text-align: left&quot;&gt;%c4Name%&lt;/div&gt;&lt;/b&gt;&lt;/font&gt;&lt;div style=&quot;text-align: left&quot;&gt;[%c4Application%]&lt;/div&gt;" id="RjjPB-zqwfENZfD3fN4v-5">
          <mxCell style="rounded=1;fontSize=11;whiteSpace=wrap;html=1;dashed=1;arcSize=20;fillColor=none;strokeColor=#666666;fontColor=#333333;labelBackgroundColor=none;align=left;verticalAlign=bottom;labelBorderColor=none;spacingTop=0;spacing=10;dashPattern=8 4;metaEdit=1;rotatable=1;perimeter=rectanglePerimeter;noLabel=0;labelPadding=0;allowArrows=0;connectable=1;expand=0;recursiveResize=0;editable=1;pointerEvents=0;absoluteArcSize=1;points=[[0.25,0,0],[0.5,0,0],[0.75,0,0],[1,0.25,0],[1,0.5,0],[1,0.75,0],[0.75,1,0],[0.5,1,0],[0.25,1,0],[0,0.75,0],[0,0.5,0],[0,0.25,0]];movable=1;resizable=1;deletable=1;locked=0;textOpacity=0;" vertex="1" parent="1">
            <mxGeometry x="357" y="678" width="141" height="211" as="geometry" />
          </mxCell>
        </object>
        <mxCell id="RjjPB-zqwfENZfD3fN4v-10" value="" style="endArrow=classic;startArrow=classic;html=1;rounded=0;" edge="1" parent="1">
          <mxGeometry width="50" height="50" relative="1" as="geometry">
            <mxPoint x="800" y="598.75" as="sourcePoint" />
            <mxPoint x="850" y="548.75" as="targetPoint" />
          </mxGeometry>
        </mxCell>
        <mxCell id="RjjPB-zqwfENZfD3fN4v-14" value="" style="rounded=1;whiteSpace=wrap;html=1;fillColor=none;strokeColor=#FFFFFF;strokeWidth=1;" vertex="1" parent="1">
          <mxGeometry x="392" y="797" width="83" height="39" as="geometry" />
        </mxCell>
        <mxCell id="RjjPB-zqwfENZfD3fN4v-15" value="" style="rounded=1;whiteSpace=wrap;html=1;fillColor=#000000;strokeColor=#FFFFFF;strokeWidth=1;" vertex="1" parent="1">
          <mxGeometry x="385" y="801" width="86" height="41" as="geometry" />
        </mxCell>
        <mxCell id="RjjPB-zqwfENZfD3fN4v-16" value="&lt;font color=&quot;#ffffff&quot;&gt;&amp;nbsp;&amp;nbsp;&amp;nbsp;&amp;nbsp;&amp;nbsp;&amp;nbsp;&amp;nbsp; Sensors&lt;/font&gt;" style="rounded=1;whiteSpace=wrap;html=1;fillColor=#000000;strokeColor=#FFFFFF;strokeWidth=1;" vertex="1" parent="1">
          <mxGeometry x="380" y="807" width="87" height="43" as="geometry" />
        </mxCell>
        <mxCell id="RjjPB-zqwfENZfD3fN4v-18" value="" style="image;aspect=fixed;perimeter=ellipsePerimeter;html=1;align=center;shadow=0;dashed=0;fontColor=#4277BB;labelBackgroundColor=default;fontSize=12;spacingTop=3;image=img/lib/ibm/users/sensor.svg;imageBackground=none;" vertex="1" parent="1">
          <mxGeometry x="384" y="812.5" width="29.5" height="29.5" as="geometry" />
        </mxCell>
        <mxCell id="RjjPB-zqwfENZfD3fN4v-23" value="" style="endArrow=classic;startArrow=classic;html=1;rounded=0;strokeColor=#FFFFFF;exitX=0.988;exitY=0.141;exitDx=0;exitDy=0;entryX=0;entryY=0.25;entryDx=0;entryDy=0;exitPerimeter=0;" edge="1" parent="1" source="RjjPB-zqwfENZfD3fN4v-14" target="RjjPB-zqwfENZfD3fN4v-6">
          <mxGeometry width="50" height="50" relative="1" as="geometry">
            <mxPoint x="497.9999999999998" y="811.2399999999998" as="sourcePoint" />
            <mxPoint x="559" y="813" as="targetPoint" />
          </mxGeometry>
        </mxCell>
        <mxCell id="RjjPB-zqwfENZfD3fN4v-27" value="" style="endArrow=classic;startArrow=classic;html=1;rounded=0;strokeColor=#FFFFFF;entryX=0;entryY=0.75;entryDx=0;entryDy=0;" edge="1" parent="1" target="RjjPB-zqwfENZfD3fN4v-6">
          <mxGeometry width="50" height="50" relative="1" as="geometry">
            <mxPoint x="466" y="831" as="sourcePoint" />
            <mxPoint x="542" y="824" as="targetPoint" />
          </mxGeometry>
        </mxCell>
        <mxCell id="RjjPB-zqwfENZfD3fN4v-28" value="" style="endArrow=classic;startArrow=classic;html=1;rounded=0;strokeColor=#FFFFFF;exitX=1.017;exitY=0.385;exitDx=0;exitDy=0;exitPerimeter=0;entryX=0;entryY=0.5;entryDx=0;entryDy=0;" edge="1" parent="1" source="RjjPB-zqwfENZfD3fN4v-15" target="RjjPB-zqwfENZfD3fN4v-6">
          <mxGeometry width="50" height="50" relative="1" as="geometry">
            <mxPoint x="475" y="825" as="sourcePoint" />
            <mxPoint x="559" y="828" as="targetPoint" />
          </mxGeometry>
        </mxCell>
        <mxCell id="RjjPB-zqwfENZfD3fN4v-29" value="&lt;font color=&quot;#ffffff&quot;&gt;&amp;nbsp;&amp;nbsp;&amp;nbsp;&amp;nbsp;&amp;nbsp;&amp;nbsp; Sensors&lt;/font&gt;" style="rounded=1;whiteSpace=wrap;html=1;fillColor=#000000;strokeColor=#FFFFFF;strokeWidth=1;" vertex="1" parent="1">
          <mxGeometry x="384" y="713.75" width="87" height="43" as="geometry" />
        </mxCell>
        <mxCell id="RjjPB-zqwfENZfD3fN4v-30" value="" style="image;aspect=fixed;perimeter=ellipsePerimeter;html=1;align=center;shadow=0;dashed=0;fontColor=#4277BB;labelBackgroundColor=default;fontSize=12;spacingTop=3;image=img/lib/ibm/users/sensor.svg;imageBackground=none;" vertex="1" parent="1">
          <mxGeometry x="388" y="721.75" width="27" height="27" as="geometry" />
        </mxCell>
        <mxCell id="RjjPB-zqwfENZfD3fN4v-32" value="" style="endArrow=classic;startArrow=classic;html=1;rounded=0;strokeColor=#FFFFFF;entryX=0;entryY=0.5;entryDx=0;entryDy=0;exitX=1;exitY=0.5;exitDx=0;exitDy=0;" edge="1" parent="1" source="RjjPB-zqwfENZfD3fN4v-29" target="RjjPB-zqwfENZfD3fN4v-31">
          <mxGeometry width="50" height="50" relative="1" as="geometry">
            <mxPoint x="467" y="725.5" as="sourcePoint" />
            <mxPoint x="552.5" y="725" as="targetPoint" />
          </mxGeometry>
        </mxCell>
      </root>
    </mxGraphModel>
  </diagram>
</mxfile>
